<?xml version="1.0" standalone="no"?><!DOCTYPE svg PUBLIC "-//W3C//DTD SVG 1.1//EN" "http://www.w3.org/Graphics/SVG/1.1/DTD/svg11.dtd"><svg t="1584696290596" class="icon" viewBox="0 0 1024 1024" version="1.1" xmlns="http://www.w3.org/2000/svg" p-id="2314" xmlns:xlink="http://www.w3.org/1999/xlink" width="64" height="64"><defs><style type="text/css"></style></defs><path d="M149.845333 0A81.92 81.92 0 0 0 68.266667 81.578667v860.842666A81.92 81.92 0 0 0 149.845333 1024h732.842667a81.92 81.92 0 0 0 81.578667-81.578667V324.778667L660.2752 0H149.845333z" fill="#45B058" p-id="2315"></path><path d="M393.079467 691.2c1.570133 1.604267 3.1744 4.778667 3.1744 7.9872a10.922667 10.922667 0 0 1-11.195734 11.195733c-3.208533 0-6.382933 0-7.9872-3.1744-11.195733-12.8-30.378667-22.4256-47.991466-22.4256-41.642667 0-73.6256 32.017067-73.6256 78.404267 0 44.817067 32.017067 78.404267 73.6256 78.404267 17.578667 0 35.157333-7.9872 47.991466-22.391467a12.219733 12.219733 0 0 1 7.9872-3.208533 10.922667 10.922667 0 0 1 11.195734 11.195733 12.219733 12.219733 0 0 1-3.1744 8.021333c-14.404267 15.9744-35.2256 27.204267-64 27.204267-56.0128 0-99.2256-40.004267-99.2256-99.2256 0-59.1872 43.2128-99.191467 99.2256-99.191467 28.7744 0 49.595733 11.195733 64 27.204267z m108.782933 171.2128c-28.808533 0-51.2-9.6256-67.208533-23.995733-3.1744-1.604267-3.1744-4.8128-3.1744-8.021334 0-6.382933 3.1744-12.8 11.195733-12.8 1.604267 0 4.778667 1.604267 6.382933 3.208534 12.8 11.195733 32.017067 20.821333 54.408534 20.821333 33.5872 0 44.817067-19.217067 44.817066-33.621333 0-49.595733-113.629867-22.391467-113.629866-91.204267 0-30.378667 27.204267-52.804267 65.604266-52.804267 23.995733 0 46.421333 8.021333 62.395734 20.821334 1.604267 1.570133 3.208533 4.778667 3.208533 7.9872a10.922667 10.922667 0 0 1-11.195733 11.195733c-1.604267 0-4.778667 0-6.417067-1.604267a81.578667 81.578667 0 0 0-49.595733-17.578666c-23.995733 0-39.970133 12.8-39.970134 30.378666 0 43.2128 113.595733 19.217067 113.595734 91.204267 0 27.204267-19.217067 55.978667-70.417067 55.978667z m272.008533-179.2l-67.208533 164.795733c-3.208533 7.9872-9.591467 12.8-17.578667 12.8h-1.604266a20.821333 20.821333 0 0 1-19.217067-12.8l-65.604267-164.795733c-1.604267-1.604267-1.604267-3.208533-1.604266-4.8128a12.629333 12.629333 0 0 1 12.8-12.8c4.8128 0 9.6256 3.208533 11.195733 7.9872l62.429867 160.017067 62.395733-160.017067a12.014933 12.014933 0 0 1 11.195733-7.9872c7.9872 0 14.404267 6.417067 14.404267 12.8 0 1.604267-1.604267 3.208533-1.604267 4.778667z" fill="#FFFFFF" p-id="2316"></path><path d="M964.266667 326.417067v15.9744h-204.8s-100.795733-20.821333-97.621334-108.782934c0 0 3.208533 92.7744 96.017067 92.7744h206.404267z" fill="#349C42" p-id="2317"></path><path d="M661.845333 0v233.608533c0 25.6 17.6128 92.7744 97.621334 92.7744h204.8L661.845333 0z" fill="#FFFFFF" opacity=".5" p-id="2318"></path></svg>