<?xml version="1.0" standalone="no"?><!DOCTYPE svg PUBLIC "-//W3C//DTD SVG 1.1//EN" "http://www.w3.org/Graphics/SVG/1.1/DTD/svg11.dtd"><svg t="1587095597238" class="icon" viewBox="0 0 1024 1024" version="1.1" xmlns="http://www.w3.org/2000/svg" p-id="1675" xmlns:xlink="http://www.w3.org/1999/xlink" width="32" height="32"><defs><style type="text/css"></style></defs><path d="M201.142857 475.428571V60.233143C201.142857 27.684571 228.937143 0 263.021714 0h476.708572L1005.714286 299.227429v664.539428c0 32.585143-28.416 60.233143-62.537143 60.233143H263.021714C228.937143 1024 201.142857 996.352 201.142857 963.766857V841.142857h61.878857v92.525714c0 10.861714 19.602286 30.098286 30.939429 30.098286h618.934857c11.337143 0 30.939429-19.236571 30.939429-30.134857V329.142857h-204.068572C698.148571 329.142857 676.571429 306.102857 676.571429 262.656V60.196571l-382.610286 0.036572c-11.337143 0-30.939429 19.273143-30.939429 30.134857V475.428571H201.142857z" fill="#BFBFBF" p-id="1676"></path><path d="M54.857143 475.428571h731.428571a36.571429 36.571429 0 0 1 36.571429 36.571429v292.571429a36.571429 36.571429 0 0 1-36.571429 36.571428H54.857143a36.571429 36.571429 0 0 1-36.571429-36.571428v-292.571429a36.571429 36.571429 0 0 1 36.571429-36.571429z m60.269714 292.571429H199.131429c27.428571 0 49.225143-9.508571 65.353142-28.416 16.164571-18.980571 24.246857-44.434286 24.246858-76.434286 0-32.109714-7.899429-57.636571-23.661715-76.653714-15.725714-19.017143-36.973714-28.525714-63.634285-28.525714H115.126857V768z m28.452572-24.283429v-161.426285h54.418285c19.638857 0 34.742857 7.021714 45.421715 21.065143 10.678857 14.043429 16.018286 34.011429 16.018285 59.794285 0 25.709714-5.558857 45.568-16.64 59.574857-11.117714 14.006857-26.843429 20.992-47.213714 20.992H143.579429z m272.822857 29.988572c30.72 0 55.442286-10.166857 74.24-30.500572 18.797714-20.333714 28.196571-47.030857 28.196571-80.091428 0-33.097143-9.398857-59.867429-28.196571-80.274286-18.797714-20.370286-43.52-30.537143-74.24-30.537143-30.464 0-55.113143 10.166857-73.984 30.537143-18.834286 20.406857-28.269714 47.177143-28.269715 80.310857 0 33.024 9.435429 59.721143 28.269715 80.091429 18.870857 20.297143 43.52 30.464 74.020571 30.464z m0-25.124572c-21.796571 0-39.387429-7.862857-52.845715-23.588571-13.421714-15.725714-20.114286-36.315429-20.114285-61.842286 0-25.6 6.692571-46.299429 20.114285-62.061714 13.458286-15.762286 31.085714-23.661714 52.882286-23.661714 21.906286 0 39.570286 7.899429 52.992 23.661714 13.421714 15.725714 20.114286 36.425143 20.114286 62.061714 0 25.526857-6.692571 46.153143-20.114286 61.842286-13.421714 15.725714-31.085714 23.588571-53.028571 23.588571z m313.161143-57.856h-27.428572c-3.510857 18.468571-10.642286 32.731429-21.430857 42.788572-10.752 10.020571-24.283429 15.067429-40.594286 15.067428-21.942857 0-38.765714-7.314286-50.322285-21.869714-11.556571-14.555429-17.371429-35.766857-17.371429-63.561143 0-26.185143 6.217143-47.030857 18.724571-62.537143 12.470857-15.433143 29.257143-23.186286 50.285715-23.186285 16.091429 0 29.257143 3.803429 39.497143 11.337143 10.24 7.606857 16.713143 18.322286 19.382857 32.219428h27.428571c-3.072-21.394286-12.214857-38.217143-27.428571-50.395428-15.250286-12.214857-34.742857-18.285714-58.441143-18.285715-30.098286 0-54.089143 10.020571-71.936 30.061715-17.846857 20.041143-26.770286 46.957714-26.770286 80.786285 0 33.792 8.594286 60.708571 25.782857 80.64 17.188571 19.931429 40.228571 29.915429 69.193143 29.915429 24.868571 0 45.421714-7.314286 61.659429-22.052572 16.237714-14.738286 26.148571-35.035429 29.769143-60.928z" fill="#1890FF" p-id="1677"></path></svg>