<?xml version="1.0" standalone="no"?><!DOCTYPE svg PUBLIC "-//W3C//DTD SVG 1.1//EN" "http://www.w3.org/Graphics/SVG/1.1/DTD/svg11.dtd"><svg t="1629107084637" class="icon" viewBox="0 0 1024 1024" version="1.1" xmlns="http://www.w3.org/2000/svg" p-id="4794" xmlns:xlink="http://www.w3.org/1999/xlink" width="100" height="100"><defs><style type="text/css"></style></defs><path d="M844.8 93.866667H179.2c-46.933333 0-85.333333 38.4-85.333333 85.333333v663.466667c0 46.933333 38.4 85.333333 85.333333 85.333333h665.6c46.933333 0 85.333333-38.4 85.333333-85.333333V179.2c0-46.933333-38.4-85.333333-85.333333-85.333333z m42.666667 533.333333l-130.133334-134.4c-36.266667-38.4-70.4-57.6-106.666666-51.2-57.6 8.533333-100.266667 74.666667-145.066667 172.8-21.333333 44.8-36.266667 55.466667-44.8 55.466667-14.933333 2.133333-36.266667-17.066667-55.466667-36.266667-6.4-6.4-12.8-12.8-19.2-17.066667-21.333333-17.066667-42.666667-25.6-64-23.466666-25.6 2.133333-42.666667 19.2-46.933333 25.6l-136.533333 130.133333V179.2c0-23.466667 19.2-42.666667 42.666666-42.666667h665.6c23.466667 0 42.666667 19.2 42.666667 42.666667v448zM343.466667 317.866667c-40.533333 0-74.666667 34.133333-74.666667 74.666666s34.133333 74.666667 74.666667 74.666667 74.666667-34.133333 74.666666-74.666667-34.133333-74.666667-74.666666-74.666666z" p-id="4795" fill="#1296db"></path></svg>