<?xml version="1.0" standalone="no"?><!DOCTYPE svg PUBLIC "-//W3C//DTD SVG 1.1//EN" "http://www.w3.org/Graphics/SVG/1.1/DTD/svg11.dtd"><svg t="1584696252702" class="icon" viewBox="0 0 1024 1024" version="1.1" xmlns="http://www.w3.org/2000/svg" p-id="1383" xmlns:xlink="http://www.w3.org/1999/xlink" width="64" height="64"><defs><style type="text/css"></style></defs><path d="M921.6 409.6h87.771429v468.114286h-87.771429v117.028571a29.257143 29.257143 0 0 1-29.257143 29.257143H131.657143a29.257143 29.257143 0 0 1-29.257143-29.257143v-117.028571H14.628571V409.6h87.771429V29.257143a29.257143 29.257143 0 0 1 29.257143-29.257143h570.836114L921.6 248.802743V409.6z m-29.257143 0v-117.028571h-175.542857a58.514286 58.514286 0 0 1-58.514286-58.514286V29.257143H160.914286a29.257143 29.257143 0 0 0-29.257143 29.257143v351.085714h760.685714z m0 468.114286H131.657143v87.771428a29.257143 29.257143 0 0 0 29.257143 29.257143h702.171428a29.257143 29.257143 0 0 0 29.257143-29.257143v-87.771428zM687.542857 29.257143v204.8a29.257143 29.257143 0 0 0 29.257143 29.257143h175.542857l-204.8-234.057143zM190.171429 528.266971v251.318858h28.496457v-102.8096h90.463085a74.254629 74.254629 0 0 0 0-148.509258H190.171429z m30.222628 23.405715H302.518857a49.181257 49.181257 0 1 1 0 98.391771H220.394057v-98.391771zM415.3344 526.628571v252.372115h92.540343a117.028571 117.028571 0 0 0 117.028571-117.028572V643.657143a117.028571 117.028571 0 0 0-117.028571-117.028572h-92.540343z m29.461943 27.0336h77.297371a73.142857 73.142857 0 0 1 73.142857 73.142858v52.0192a73.142857 73.142857 0 0 1-73.142857 73.142857h-77.297371v-198.304915z m219.018971-26.272914v251.231086h29.315657v-116.472686h135.5776v-24.634514h-135.5776v-84.845714h135.5776v-25.278172H663.844571z" fill="#F95951" p-id="1384"></path></svg>