<?xml version="1.0" standalone="no"?><!DOCTYPE svg PUBLIC "-//W3C//DTD SVG 1.1//EN" "http://www.w3.org/Graphics/SVG/1.1/DTD/svg11.dtd"><svg t="1587097196796" class="icon" viewBox="0 0 1024 1024" version="1.1" xmlns="http://www.w3.org/2000/svg" p-id="4939" xmlns:xlink="http://www.w3.org/1999/xlink" width="32" height="32"><defs><style type="text/css"></style></defs><path d="M899.2 230.4L736 64l-16-16H188.8c-44.8 0-83.2 35.2-83.2 83.2v761.6c0 44.8 35.2 83.2 83.2 83.2H832c44.8 0 83.2-35.2 83.2-83.2V246.4l-16-16z" fill="#FBB03B" p-id="4940"></path><path d="M784 246.4h134.4l-16-16L736 64l-16-16v134.4c0 35.2 28.8 64 64 64z" fill="#FFD6A9" p-id="4941"></path><path d="M281.6 166.4h54.4v60.8H281.6zM342.4 108.8h54.4v60.8h-54.4zM342.4 227.2h54.4V288h-54.4zM281.6 284.8h54.4v60.8H281.6zM342.4 345.6v60.8H281.6v112c0 3.2 3.2 12.8 12.8 12.8H384c3.2 0 12.8-3.2 12.8-12.8v-169.6h-54.4z m32 156.8H297.6v-32h76.8v32zM281.6 48h54.4v60.8H281.6V48z" fill="#FFFFFF" p-id="4942"></path></svg>