<?xml version="1.0" standalone="no"?><!DOCTYPE svg PUBLIC "-//W3C//DTD SVG 1.1//EN" "http://www.w3.org/Graphics/SVG/1.1/DTD/svg11.dtd"><svg t="1587097045117" class="icon" viewBox="0 0 1024 1024" version="1.1" xmlns="http://www.w3.org/2000/svg" p-id="3436" xmlns:xlink="http://www.w3.org/1999/xlink" width="32" height="32"><defs><style type="text/css"></style></defs><path d="M724.5 298.8H841L724.5 182.3v116.5z m159.4-13.6c17.3 17.3 26.9 40.7 26.9 65.1v507.5c0 29.3-24 53.2-53.2 53.2H325.2c-29.3 0-53.2-24-53.2-53.2v-39.9h39.9v39.9c0 7.2 6.1 13.3 13.3 13.3h532.3c7.2 0 13.3-6.1 13.3-13.3V350.3c0-3.9-0.5-7.8-1.4-11.5H684.6v-185c-3.8-0.9-7.6-1.3-11.5-1.4H325.2c-7.2 0-13.3 6.1-13.3 13.3v119.8H272V165.7c0-29.3 24-53.2 53.2-53.2H673c24.4 0 47.8 9.7 65.1 27l145.8 145.7zM631.3 478.5v-39.9h186.3v39.9H631.3z m0 119.8v-39.9h186.3v39.9H631.3z m0 119.8v-39.9h186.3v39.9H631.3z m-519 59.8V325.4h452.5v452.5H112.3z m343-328.8v-39.9H221.8v39.9h93.4v245.1h46.7V449.1h93.4z m0 0" fill="#515151" p-id="3437"></path></svg>