<?xml version="1.0" standalone="no"?><!DOCTYPE svg PUBLIC "-//W3C//DTD SVG 1.1//EN" "http://www.w3.org/Graphics/SVG/1.1/DTD/svg11.dtd"><svg t="1584696335057" class="icon" viewBox="0 0 1163 1024" version="1.1" xmlns="http://www.w3.org/2000/svg" p-id="3160" xmlns:xlink="http://www.w3.org/1999/xlink" width="72.6875" height="64"><defs><style type="text/css"></style></defs><path d="M0 0m90.509956 0l950.354538 0q90.509956 0 90.509956 90.509956l0 814.589604q0 90.509956-90.509956 90.509956l-950.354538 0q-90.509956 0-90.509956-90.509956l0-814.589604q0-90.509956 90.509956-90.509956Z" fill="#FFFFFF" p-id="3161"></path><path d="M585.73518 46.160078h60.867946v84.015866h308.118517c17.423167 0.746707 36.452885 0 51.54542 10.63492 10.63492 15.49983 9.345153 35.276255 10.63492 53.129344-0.588315 182.309679-0.588315 364.641985 0 546.951664 0 30.614993 2.737926 61.840927-3.529888 91.912861-4.027693 21.880782-29.732521 22.401214-46.838903 23.170548h-319.273869v93.27051h-63.764264C426.460285 920.576762 269.742296 893.695305 113.137445 865.637219V130.289082c157.555206-28.058086 315.133039-55.663623 472.597735-84.151632z" fill="#207245" p-id="3162"></path><path d="M646.603126 161.741291h338.73351v661.831426h-338.73351v-63.017557h82.137785v-73.539339h-82.137785v-42.494424h82.137785v-73.08679h-82.137785v-41.973992h82.137785v-73.629849h-82.137785v-42.494425h82.137785v-72.996279h-82.137785v-42.494424h82.137785v-73.08679h-82.137785z" fill="#FFFFFF" p-id="3163"></path><path d="M769.855058 298.27556h143.661928v-73.539339h-143.661928z" fill="#207245" p-id="3164"></path><path d="M417.115132 323.23368c23.261059-1.697062 46.522117-3.145221 69.805804-4.367105-27.424517 57.49645-55.030053 114.902389-82.771355 172.240446 28.148596 58.763589 57.066527 116.870981 85.011476 176.041865l-74.376556-4.751773c-17.423167-43.897329-38.693006-86.188106-51.228635-132.076653-13.915906 42.494424-33.873351 82.975002-49.916241 124.722719-22.423842 0-44.960821-1.267139-67.362035-2.217494 26.338397-53.129344 51.81695-106.258688 79.037819-158.618698-23.170549-54.079699-48.445454-107.118533-72.249572-160.994584l67.67882-3.914556c15.296183 41.114148 31.882132 81.594725 44.621408 123.772365 14.255318-44.734546 34.642686-86.68591 51.749067-129.836532z" fill="#FFFFFF" p-id="3165"></path><path d="M769.855058 413.856774h143.661928v-73.516712h-143.661928v73.539339z m0 115.626469h143.661928v-73.652477h-143.661928V529.483243z m0 115.468076h143.661928v-73.539339h-143.661928v73.539339z m0 115.603841h143.661928v-73.539339h-143.661928v73.539339z" fill="#207245" p-id="3166"></path></svg>