<?xml version="1.0" standalone="no"?><!DOCTYPE svg PUBLIC "-//W3C//DTD SVG 1.1//EN" "http://www.w3.org/Graphics/SVG/1.1/DTD/svg11.dtd"><svg t="1587096948506" class="icon" viewBox="0 0 1024 1024" version="1.1" xmlns="http://www.w3.org/2000/svg" p-id="2635" xmlns:xlink="http://www.w3.org/1999/xlink" width="32" height="32"><defs><style type="text/css"></style></defs><path d="M713.265797 0l237.34259 238.220148v706.981819a79.492034 79.492034 0 0 1-79.747988 78.614477H152.872553A79.492034 79.492034 0 0 1 73.088 945.055708V78.906996A79.492034 79.492034 0 0 1 152.872553 0h560.393244z" fill="#F69867" p-id="2636"></path><path d="M717.617017 0.146259l233.13763 229.042365h-155.327581a77.261577 77.261577 0 0 1-77.66379-76.347455V0.146259z" fill="#FFFFFF" fill-opacity="0.55" p-id="2637"></path><path d="M301.691586 715.903649h164.541929v28.59373l-126.73385 160.081014h133.973694v30.714494H292.477238v-28.301212l127.062934-160.373533H301.691586z m201.106802 0h35.94327v219.389238h-36.08953z m78.980125 0h90.79058q79.565164 0 79.565164 67.279366 0 67.900969-80.186767 67.900969h-54.371966v84.099208h-35.94327z m35.943271 30.714493v73.751349h52.251203a58.028453 58.028453 0 0 0 34.773194-8.446486 34.553805 34.553805 0 0 0 10.969462-28.59373 32.908386 32.908386 0 0 0-11.371675-27.972128 55.761431 55.761431 0 0 0-34.73663-8.592745z" fill="#FFFFFF" p-id="2638"></path><path d="M575.050577 0.146259h-32.579302a48.887235 48.887235 0 1 0 0 97.774471h32.579302c26.326709 0 16.307933 0 16.307933-32.579302S601.377285 0.146259 575.050577 0.146259z m0 0" fill="#FFFFFF" p-id="2639"></path><path d="M575.050577 169.990095h-32.579302a48.887235 48.887235 0 1 0 0 97.77447h32.579302c26.326709 0 16.307933 0 16.307933-32.579302s10.018775-65.195169-16.307933-65.195168z m0 0" fill="#FFFFFF" p-id="2640"></path><path d="M414.603914 194.854208h31.336096a48.887235 48.887235 0 1 0 0-97.77447H414.603914c-26.326709 0-16.307933 37.625254-16.307933 65.195168s-10.018775 32.579302 16.307933 32.579302z m0 0" fill="#FFFFFF" p-id="2641"></path><path d="M414.603914 351.644384h31.336096a48.887235 48.887235 0 1 0 0-97.774471H414.603914c-26.326709 0-16.307933 37.625254-16.307933 65.195169s-10.018775 32.579302 16.307933 32.579302z m0 0" fill="#FFFFFF" p-id="2642"></path><path d="M575.050577 509.312116h-30.056326a421.154207 421.154207 0 0 1-47.534335 0 428.650006 428.650006 0 0 1-51.666165 0 48.887235 48.887235 0 1 0 0-97.77447h-31.336097c-26.326709 0-16.307933 37.625254-16.307933 65.195168s-10.018775 32.579302 16.307933 32.579302c-26.326709 0-16.307933 37.625254-16.307933 65.195169s-10.018775 27.569914 16.307933 27.569914h160.446663c26.326709 0 16.307933 0 16.307934-32.579302s10.018775-60.185781-16.307934-60.185781z m0 0" fill="#FFFFFF" p-id="2643"></path><path d="M575.050577 338.810113h-32.579302a48.887235 48.887235 0 1 0 0 97.774471h32.579302c26.326709 0 16.307933 0 16.307933-32.579302s10.018775-65.195169-16.307933-65.195169z m0 0" fill="#FFFFFF" p-id="2644"></path></svg>